<?xml version="1.0" encoding="utf-8"?>
<!-- Generator: Adobe Illustrator 24.1.1, SVG Export Plug-In . SVG Version: 6.00 Build 0)  -->
<svg version="1.1" id="Layer_1" xmlns="http://www.w3.org/2000/svg" xmlns:xlink="http://www.w3.org/1999/xlink" x="0px" y="0px"
	 viewBox="0 0 512 512" style="enable-background:new 0 0 512 512;" xml:space="preserve">
<style type="text/css">
	.st0{fill:#424242;}
	.st1{fill:#FFFFFF;}
</style>
<g id="XMLID_1_">
	<path id="XMLID_3_" class="st0" d="M25.2,0h461.6c14,0,25.2,11.2,25.2,25.2v461.6c0,14-11.2,25.2-25.2,25.2H25.2
		C11.2,512,0,500.8,0,486.8V25.2C0,11.2,11.2,0,25.2,0z"/>
	<path id="XMLID_4_" class="st1" d="M217.3,406.6c0-3.7,0-14,0-28c-43.8,9.3-53.2-21.4-53.2-21.4c-7.5-18.7-17.7-23.3-17.7-23.3
		c-14-10.3,0.9-10.3,0.9-10.3c15.9,0.9,24.2,16.8,24.2,16.8c14,25.2,37.3,17.7,45.7,13.1c1.9-10.3,5.6-17.7,10.3-21.4
		c-35.4-3.7-71.8-17.7-71.8-80.2c0-17.7,6.5-31.7,15.9-43.8c-1.9-3.7-7.5-20.5,1.9-42.9c0,0,13.1-4.7,43.8,16.8
		c12.1-3.7,26.1-5.6,39.2-5.6c13.1,0,27,1.9,39.2,5.6c29.8-20.5,42.9-16.8,42.9-16.8c8.4,22.4,2.8,39.2,1.9,42.9
		c10.3,11.2,15.9,26.1,15.9,43.8c0,62.5-37.3,75.5-71.8,80.2c5.6,4.7,10.3,14.9,10.3,29.8c0,21.4,0,39.2,0,44.8
		c0,4.7,2.8,9.3,11.2,7.5c62.5-21.4,108.2-82.1,108.2-153.9c0-89.5-70.9-162.3-157.6-162.3S98.9,170.7,98.9,260.2
		c0,71.8,44.8,132.4,108.2,153.9C214.5,415.9,217.3,410.3,217.3,406.6z"/>
</g>
</svg>
